<svg width="13" height="14" viewBox="0 0 13 14" fill="none" xmlns="http://www.w3.org/2000/svg">
<g clip-path="url(#clip0_1038_301)">
<path d="M12.2812 7C12.2812 3.79886 9.70114 1.21875 6.5 1.21875C3.29886 1.21875 0.71875 3.79886 0.71875 7C0.71875 10.2011 3.29886 12.7812 6.5 12.7812C9.70114 12.7812 12.2812 10.2011 12.2812 7ZM0.5 7C0.5 3.70114 3.20114 1 6.5 1C9.79886 1 12.5 3.70114 12.5 7C12.5 10.2989 9.79886 13 6.5 13C3.20114 13 0.5 10.2989 0.5 7Z" fill="black" stroke="black"/>
<path d="M8.04375 8.86875C7.6375 9.19375 7.06875 9.4375 6.5 9.4375C5.11875 9.4375 4.0625 8.38125 4.0625 7C4.0625 5.61875 5.11875 4.5625 6.5 4.5625C7.15 4.5625 7.8 4.80625 8.20625 5.29375L9.1 4.4C8.45 3.75 7.475 3.34375 6.5 3.34375C4.46875 3.34375 2.84375 4.96875 2.84375 7C2.84375 9.03125 4.46875 10.6562 6.5 10.6562C7.39375 10.6562 8.125 10.3313 8.775 9.84375L8.04375 8.86875Z" fill="black"/>
</g>
<defs>
<clipPath id="clip0_1038_301">
<rect width="13" height="13" fill="white" transform="translate(0 0.5)"/>
</clipPath>
</defs>
</svg>
